<svg width="62" height="62" viewBox="0 0 62 62" fill="none" xmlns="http://www.w3.org/2000/svg">
<path d="M22.6042 51.8372C22.6042 47.9097 19.4198 46.3713 17.1151 46.3713C14.8103 46.3713 11.7009 48.1633 11.7009 51.8372C11.7009 54.5565 11.2426 56.1878 10.8456 57.0911C10.647 57.5428 10.974 58.0464 11.4674 58.0464C11.643 58.0464 11.8117 58.1142 11.9385 58.2357L12.7482 59.0115C13.0148 59.267 13.4364 59.2634 13.6986 59.0034L14.1575 58.5485C14.4332 58.275 14.8815 58.2873 15.1418 58.5753L15.4288 58.8926C15.7055 59.1986 16.1883 59.1901 16.4543 58.8749L16.6323 58.6637C16.9044 58.3412 17.4013 58.3412 17.6733 58.6637L17.8513 58.8749C18.1171 59.1901 18.6001 59.1986 18.8768 58.8926L19.1638 58.5753C19.4241 58.2873 19.8724 58.2752 20.1481 58.5485L20.607 59.0034C20.8692 59.2634 21.2908 59.267 21.5574 59.0115L22.3672 58.2357C22.4939 58.1142 22.6626 58.0464 22.8382 58.0464C23.3317 58.0464 23.6586 57.5428 23.46 57.0911C23.0628 56.1882 22.6045 54.5566 22.6045 51.8372H22.6042ZM20.8281 52.3104C20.8281 54.4471 19.0898 56.1854 16.9531 56.1854C14.8164 56.1854 13.0781 54.4471 13.0781 52.3104C13.0781 51.9754 13.1253 51.6519 13.2057 51.3417H15.9714C16.2437 51.3417 16.5035 51.227 16.6871 51.026L17.03 50.6502C17.4024 50.2422 18.0399 50.2276 18.4307 50.6183L18.8704 51.0581C19.0519 51.2396 19.2983 51.3417 19.5552 51.3417H20.7006C20.7809 51.6519 20.8281 51.9754 20.8281 52.3104Z" fill="white"/>
<path d="M16.9529 14.5312C19.628 14.5312 21.7966 12.3626 21.7966 9.6875C21.7966 7.01235 19.628 4.84375 16.9529 4.84375C14.2777 4.84375 12.1091 7.01235 12.1091 9.6875C12.1091 12.3626 14.2777 14.5312 16.9529 14.5312ZM16.9529 13.5625C14.8162 13.5625 13.0779 11.8242 13.0779 9.6875C13.0779 9.52322 13.0916 9.36216 13.1116 9.20312H16.6931C16.9523 9.20312 17.2005 9.09939 17.3826 8.91492L17.7844 8.50785C18.162 8.12539 18.7788 8.12337 19.1588 8.50341L19.5746 8.91916C19.7562 9.101 20.0026 9.20313 20.2596 9.20313H20.7942C20.8142 9.36216 20.8279 9.52322 20.8279 9.6875C20.8279 11.8242 19.0896 13.5625 16.9529 13.5625Z" fill="white"/>
<path d="M20.8279 31.4846C20.8279 37.6376 25.8157 42.625 31.9682 42.625C38.1208 42.625 43.1086 37.6371 43.1086 31.4846C43.1086 25.3321 38.1208 20.3442 31.9682 20.3442C25.8157 20.3442 20.8279 25.3321 20.8279 31.4846ZM28.3567 21.9872C28.7354 22.3844 29.6065 22.9172 31.5581 22.9172C33.6744 22.9172 34.8068 22.2912 35.3158 21.8904C36.6056 22.3418 37.7744 23.0446 38.769 23.9421H36.0389C35.8072 23.9421 35.5975 24.0785 35.5035 24.29C35.3551 24.6237 34.9412 24.7419 34.6391 24.5369L34.4195 24.3879C34.2764 24.2908 34.0978 24.262 33.9315 24.3088L31.4618 25.0053C31.3005 25.0507 31.1663 25.1631 31.0935 25.3139L30.5641 26.4073C30.5104 26.5181 30.4234 26.6092 30.315 26.6677L29.23 27.2536C29.0405 27.3559 28.9225 27.5539 28.9225 27.7693V27.7856C28.9225 28.1093 29.1848 28.3715 29.5086 28.3715H31.2989C31.5314 28.3715 31.7199 28.56 31.7199 28.7925C31.7199 29.025 31.9084 29.2135 32.1409 29.2135H32.6015C32.834 29.2135 33.0225 29.025 33.0225 28.7925V28.2982L34.6698 29.2135L34.743 30.1653L34.2306 29.6529H31.9304C30.6592 29.6529 29.4385 30.1508 28.5299 31.0398C28.2425 31.3212 28.0805 31.7064 28.0805 32.1087C28.0805 32.5053 28.2381 32.8855 28.5184 33.1661L28.6125 33.2603C28.893 33.5406 29.2732 33.6983 29.6698 33.6983H30.4588C30.8725 33.6983 31.2079 34.0337 31.2079 34.4474V34.8148L30.5557 36.8703C30.4069 37.3392 30.5318 37.8518 30.8796 38.1995C31.1264 38.4464 31.4614 38.5852 31.8106 38.5852C32.9548 38.5852 33.9869 37.898 34.428 36.8423L34.7114 36.1642C35.3363 34.6693 35.6579 33.0654 35.6579 31.4452H36.0057C36.2584 31.4452 36.4632 31.2403 36.4632 30.9876V30.6233C36.4632 30.3706 36.6681 30.1658 36.9207 30.1658C37.1734 30.1658 37.3783 29.9609 37.3783 29.7083V28.5185L40.2371 31.3774C40.737 31.8773 41.4014 32.1721 42.1027 32.2161C41.8109 36.2883 39.117 39.6969 35.4295 41.0377C35.0809 40.6367 34.2252 40.0528 32.1801 40.0528C30.1468 40.0528 29.024 40.63 28.4875 41.0309C27.9377 40.8296 27.4096 40.586 26.9087 40.2972V39.4284C26.9087 39.1402 26.8334 38.857 26.6905 38.6068L25.5162 36.5519C25.3734 36.3016 25.2981 36.0185 25.2981 35.7303V34.861C25.2981 34.411 25.1148 33.9803 24.7907 33.668C24.4821 33.371 24.0704 33.2049 23.6419 33.2049H21.9531C21.9317 33.0795 21.9121 32.9536 21.8951 32.8266L22.8585 31.9253C23.4666 31.3564 23.8655 30.5993 23.9915 29.7761C24.1687 28.6166 24.8836 27.6091 25.9195 27.0591L26.7817 26.6012C27.2429 26.3564 27.5313 25.8768 27.5313 25.3545C27.5313 24.5751 26.8994 23.9432 26.1198 23.9432H25.1675C26.0937 23.1067 27.171 22.44 28.3568 21.9875L28.3567 21.9872Z" fill="white"/>
<path d="M40.9784 14.0058C40.7971 14.3005 40.6873 14.6442 40.6873 15.0155C40.6873 16.0856 41.5548 16.953 42.6248 16.953C43.529 16.953 44.2822 16.3308 44.4959 15.4933C44.5183 15.4943 44.5395 15.4999 44.5623 15.4999C45.3391 15.4999 45.968 14.8888 46.0078 14.1219C46.6036 14.3834 47.2607 14.5312 47.953 14.5312C48.1239 14.5312 48.2926 14.5219 48.4591 14.5045C48.5661 15.3379 49.2702 15.9843 50.1327 15.9843C50.2659 15.9843 50.3938 15.9653 50.5181 15.9363C50.7801 16.5343 51.3755 16.9531 52.0702 16.9531C53.0064 16.9531 53.7654 16.194 53.7654 15.2578C53.7654 15.0915 53.7342 14.9341 53.6894 14.7821C53.8034 14.613 53.8908 14.4218 53.9384 14.2109C53.9917 13.9758 53.9925 13.7411 53.9493 13.5187C53.9154 13.3435 53.9614 13.1582 54.0797 13.0248C54.3217 12.7516 54.5019 12.4175 54.5881 12.0361C54.7768 11.2014 54.4757 10.3727 53.8774 9.84247C54.3941 9.49432 54.7342 8.9042 54.7342 8.23434C54.7342 7.18081 53.8924 6.3281 52.8451 6.3017C52.8488 6.25488 52.8609 6.21128 52.8609 6.16305C52.8603 5.51861 52.4637 4.91256 51.876 4.64839C51.6443 4.54425 51.4078 4.4952 51.1775 4.49359C50.7256 4.49056 50.2933 4.26189 50.1066 3.85039C49.869 3.32685 49.3994 2.91698 48.7947 2.78011C48.0792 2.61845 47.3692 2.88304 46.9252 3.40518C46.6382 3.74283 46.1642 3.81205 45.7391 3.68611C45.5716 3.63647 45.3918 3.60902 45.2013 3.60861C44.4388 3.6066 43.735 4.06595 43.4424 4.76993C43.3354 5.02766 43.2876 5.29 43.291 5.54493C43.2979 6.04727 43.005 6.49833 42.5366 6.67999C41.8615 6.94176 41.3254 7.52061 41.1534 8.28104C40.9845 9.0286 41.2128 9.76728 41.6915 10.2942C40.8287 10.5845 40.2029 11.3908 40.2029 12.3516C40.2029 13.0174 40.5078 13.6061 40.9783 14.006L40.9784 14.0058ZM46.9841 11.6249C46.9841 10.8616 46.5387 10.2079 45.8973 9.89207C46.2608 9.62788 46.4997 9.20243 46.4997 8.71867C46.4997 8.29747 46.3177 7.92125 46.0315 7.65589C46.3607 7.53459 46.6303 7.29846 46.798 6.99491C47.0618 7.16444 47.3738 7.26556 47.7106 7.26556C48.3672 7.26556 48.9299 6.88855 49.2116 6.34285C49.3024 6.29744 49.3931 6.25102 49.4758 6.19228C49.4778 6.96424 50.0078 7.66096 50.7927 7.83833C50.828 7.84641 50.8627 7.84398 50.8978 7.84984C50.8728 7.97395 50.8591 8.10252 50.8591 8.23431C50.8591 8.72817 51.0496 9.17402 51.354 9.51611C51.4876 9.66647 51.643 9.79442 51.8173 9.89715C51.7584 10.9878 51.2498 11.9592 50.47 12.6276C50.455 12.6405 50.4413 12.6549 50.426 12.6676C49.9228 13.0858 49.3117 13.3764 48.6421 13.4973C48.4179 13.5381 48.1884 13.5625 47.9529 13.5625C47.3322 13.5625 46.7472 13.4121 46.2267 13.1518C46.6844 12.7974 46.9841 12.2487 46.9841 11.625L46.9841 11.6249Z" fill="white"/>
<path d="M46.9846 47.4688C44.3095 47.4688 42.1409 49.6374 42.1409 52.3125C42.1409 54.9876 44.3095 57.1562 46.9846 57.1562C49.6598 57.1562 51.8284 54.9876 51.8284 52.3125C51.8284 49.6374 49.6598 47.4688 46.9846 47.4688ZM46.9846 56.1875C45.1702 56.1875 43.6475 54.9324 43.2281 53.2459C46.2437 53.2007 47.6757 51.9326 48.3518 50.6791C48.7921 51.3387 49.5536 51.9254 50.8463 52.0489C50.8521 52.1363 50.8596 52.2235 50.8596 52.3125C50.8596 54.4492 49.1213 56.1875 46.9846 56.1875Z" fill="white"/>
<path d="M59.0962 26.1562C59.0962 24.8188 58.012 23.7344 56.6743 23.7344C55.3366 23.7344 54.2524 24.8188 54.2524 26.1562C54.2524 26.323 54.2694 26.4858 54.3015 26.643C54.2849 26.6428 54.269 26.6406 54.2524 26.6406C51.5773 26.6406 49.4087 28.8092 49.4087 31.4844C49.4087 34.1595 51.5773 36.3281 54.2524 36.3281C56.9276 36.3281 59.0962 34.1595 59.0962 31.4844C59.0962 30.243 58.6253 29.1144 57.8574 28.2572C58.5934 27.8417 59.0962 27.0618 59.0962 26.1562ZM54.2524 35.3591C52.2225 35.3591 50.5552 33.7891 50.3934 31.8002C52.7442 31.5467 53.7967 30.0891 54.2589 28.9654C54.6862 30.3254 55.6973 31.9897 58.0754 32.0896C57.7831 33.9391 56.1827 35.3591 54.2524 35.3591Z" fill="white"/>
<path d="M14.4729 33.7063C14.5532 34.2381 14.6089 34.8034 14.6089 35.3579C14.6089 35.7877 14.9572 36.1365 15.3873 36.1365C15.8174 36.1365 16.1657 35.7879 16.1657 35.3579C16.1657 34.4848 16.0499 33.6014 15.9041 32.8342C16.0464 32.9013 16.1948 32.9648 16.3566 33.0199C16.44 33.0484 16.5248 33.0619 16.6081 33.0619C16.932 33.0619 17.2346 32.8583 17.3448 32.5345C17.4836 32.1275 17.2665 31.6852 16.8594 31.5464C15.5461 31.0984 15.3479 29.9922 15.3415 29.9548C15.3358 29.9137 15.3267 29.8731 15.3146 29.8333C14.6145 27.5632 12.2723 26.6892 11.4368 26.4443C11.0608 25.817 10.3215 25.2758 9.08053 25.2758C7.54386 25.2758 6.81727 26.0768 6.23344 26.7206C5.72666 27.2794 5.39163 27.6486 4.55649 27.6486C4.12641 27.6486 3.77787 27.9971 3.77787 28.427C3.77787 28.8569 4.12622 29.2054 4.55649 29.2054C4.88566 29.2054 5.17122 29.1626 5.4326 29.0979C5.08829 29.3515 4.75567 29.4868 4.55649 29.4868C4.12641 29.4868 3.77787 29.8353 3.77787 30.2652C3.77787 30.6951 4.12622 31.0436 4.55649 31.0436C4.8011 31.0436 5.079 30.9877 5.36905 30.8839C5.36643 30.9047 5.36199 30.9249 5.35957 30.9457C5.0417 31.1651 4.74138 31.2767 4.55651 31.2767C4.12643 31.2767 3.7779 31.6252 3.7779 32.0551C3.7779 32.485 4.12624 32.8335 4.55651 32.8335C4.8211 32.8335 5.12443 32.7681 5.44012 32.6468C4.84734 33.1766 4.14463 33.5131 3.5704 33.5131C3.14052 33.5131 2.79199 33.8616 2.79199 34.2915C2.79199 34.7214 3.14054 35.0699 3.5704 35.0699C4.34256 35.0699 5.1436 34.7738 5.86048 34.2888C5.53009 34.7171 5.12319 35.0386 4.65964 35.2104C4.2566 35.3597 4.05095 35.8077 4.20029 36.2108C4.31674 36.5248 4.61403 36.719 4.9305 36.719C5.02051 36.719 5.11193 36.7032 5.20114 36.6701C5.94648 36.394 6.59511 35.8945 7.10371 35.2311C7.93906 35.9165 9.00711 36.328 10.1718 36.328C12.0454 36.328 13.6672 35.2624 14.4729 33.7061L14.4729 33.7063ZM10.1718 35.3595C9.19299 35.3595 8.3005 34.9917 7.61773 34.3911C7.31096 34.1213 7.048 33.8042 6.8387 33.4508C6.72588 33.2605 6.62941 33.0601 6.55029 32.8508C6.46432 32.624 6.39933 32.3874 6.35715 32.1426C6.32526 31.9576 6.30609 31.7685 6.30165 31.5753C6.30064 31.5449 6.2968 31.5152 6.2968 31.4845C6.2968 31.3763 6.30427 31.2702 6.31295 31.1642C6.37571 31.161 6.43707 31.1564 6.49762 31.1513C6.85363 31.1214 7.17755 31.0629 7.46797 30.9771C7.72509 30.9012 7.95557 30.804 8.1665 30.6928C9.36331 30.061 9.85275 28.9244 10.0461 27.9968C10.1048 28.8075 10.3377 29.7242 11.0542 30.0598C11.453 30.2467 11.7646 30.5753 11.8904 30.9973C12.0954 31.6846 12.6083 32.6146 13.8341 32.7393C13.3116 34.261 11.8692 35.3596 10.1718 35.3596L10.1718 35.3595Z" fill="white"/>
<path d="M38.1104 11.1404H38.5947C38.8625 11.1404 39.0791 10.9234 39.0791 10.656C39.0791 10.3886 38.8625 10.1716 38.5947 10.1716H38.1104C37.8425 10.1716 37.626 10.3886 37.626 10.656C37.626 10.9234 37.8427 11.1404 38.1104 11.1404Z" fill="white"/>
<path d="M23.5791 11.1404H24.0635C24.3313 11.1404 24.5479 10.9234 24.5479 10.656C24.5479 10.3886 24.3313 10.1716 24.0635 10.1716H23.5791C23.3113 10.1716 23.0947 10.3886 23.0947 10.656C23.0947 10.9234 23.3115 11.1404 23.5791 11.1404Z" fill="white"/>
<path d="M28.4229 11.1404H28.9072C29.175 11.1404 29.3916 10.9234 29.3916 10.656C29.3916 10.3886 29.175 10.1716 28.9072 10.1716H28.4229C28.155 10.1716 27.9385 10.3886 27.9385 10.656C27.9385 10.9234 28.1552 11.1404 28.4229 11.1404Z" fill="white"/>
<path d="M30.845 11.1404H31.3293C31.5972 11.1404 31.8137 10.9234 31.8137 10.656C31.8137 10.3886 31.5972 10.1716 31.3293 10.1716H30.845C30.5772 10.1716 30.3606 10.3886 30.3606 10.656C30.3606 10.9234 30.5774 11.1404 30.845 11.1404Z" fill="white"/>
<path d="M33.2666 11.1404H33.751C34.0188 11.1404 34.2354 10.9234 34.2354 10.656C34.2354 10.3886 34.0188 10.1716 33.751 10.1716H33.2666C32.9988 10.1716 32.7822 10.3886 32.7822 10.656C32.7822 10.9234 32.999 11.1404 33.2666 11.1404Z" fill="white"/>
<path d="M35.6887 11.1404H36.1731C36.4409 11.1404 36.6575 10.9234 36.6575 10.656C36.6575 10.3886 36.4409 10.1716 36.1731 10.1716H35.6887C35.4209 10.1716 35.2043 10.3886 35.2043 10.656C35.2043 10.9234 35.4211 11.1404 35.6887 11.1404Z" fill="white"/>
<path d="M26.0012 11.1404H26.4856C26.7534 11.1404 26.97 10.9234 26.97 10.656C26.97 10.3886 26.7534 10.1716 26.4856 10.1716H26.0012C25.7334 10.1716 25.5168 10.3886 25.5168 10.656C25.5168 10.9234 25.7336 11.1404 26.0012 11.1404Z" fill="white"/>
<path d="M34.3904 50.8596H33.906C33.6382 50.8596 33.4216 51.0766 33.4216 51.344C33.4216 51.6114 33.6382 51.8284 33.906 51.8284H34.3904C34.6582 51.8284 34.8748 51.6114 34.8748 51.344C34.8748 51.0766 34.6582 50.8596 34.3904 50.8596Z" fill="white"/>
<path d="M31.9687 50.8596H31.4844C31.2166 50.8596 31 51.0766 31 51.344C31 51.6114 31.2166 51.8284 31.4844 51.8284H31.9687C32.2366 51.8284 32.4531 51.6114 32.4531 51.344C32.4531 51.0766 32.2366 50.8596 31.9687 50.8596Z" fill="white"/>
<path d="M29.5471 50.8596H29.0627C28.7949 50.8596 28.5784 51.0766 28.5784 51.344C28.5784 51.6114 28.7949 51.8284 29.0627 51.8284H29.5471C29.8149 51.8284 30.0315 51.6114 30.0315 51.344C30.0315 51.0766 29.8149 50.8596 29.5471 50.8596Z" fill="white"/>
<path d="M36.8125 50.8596H36.3281C36.0603 50.8596 35.8438 51.0766 35.8438 51.344C35.8438 51.6114 36.0603 51.8284 36.3281 51.8284H36.8125C37.0803 51.8284 37.2969 51.6114 37.2969 51.344C37.2969 51.0766 37.0803 50.8596 36.8125 50.8596Z" fill="white"/>
<path d="M24.7029 50.8596H24.2185C23.9507 50.8596 23.7341 51.0766 23.7341 51.344C23.7341 51.6114 23.9507 51.8284 24.2185 51.8284H24.7029C24.9707 51.8284 25.1873 51.6114 25.1873 51.344C25.1873 51.0766 24.9707 50.8596 24.7029 50.8596Z" fill="white"/>
<path d="M27.125 50.8596H26.6406C26.3728 50.8596 26.1562 51.0766 26.1562 51.344C26.1562 51.6114 26.3728 51.8284 26.6406 51.8284H27.125C27.3928 51.8284 27.6094 51.6114 27.6094 51.344C27.6094 51.0766 27.3928 50.8596 27.125 50.8596Z" fill="white"/>
<path d="M39.2346 50.8596H38.7502C38.4824 50.8596 38.2659 51.0766 38.2659 51.344C38.2659 51.6114 38.4824 51.8284 38.7502 51.8284H39.2346C39.5024 51.8284 39.719 51.6114 39.719 51.344C39.719 51.0766 39.5024 50.8596 39.2346 50.8596Z" fill="white"/>
<path d="M19.8596 30.0312H19.3752C19.1074 30.0312 18.8909 30.2482 18.8909 30.5156C18.8909 30.783 19.1074 31 19.3752 31H19.8596C20.1274 31 20.344 30.783 20.344 30.5156C20.344 30.2482 20.1274 30.0312 19.8596 30.0312Z" fill="white"/>
<path d="M16.9529 31H17.4373C17.7051 31 17.9216 30.783 17.9216 30.5156C17.9216 30.2482 17.7051 30.0312 17.4373 30.0312H16.9529C16.6851 30.0312 16.4685 30.2482 16.4685 30.5156C16.4685 30.783 16.6851 31 16.9529 31Z" fill="white"/>
<path d="M44.5625 30.0312C44.2947 30.0312 44.0781 30.2482 44.0781 30.5156C44.0781 30.783 44.2947 31 44.5625 31H45.0469C45.3147 31 45.5312 30.783 45.5312 30.5156C45.5312 30.2482 45.3147 30.0312 45.0469 30.0312H44.5625Z" fill="white"/>
<path d="M47.9529 30.5154C47.9529 30.248 47.7363 30.031 47.4685 30.031H46.9841C46.7163 30.031 46.4998 30.248 46.4998 30.5154C46.4998 30.7828 46.7163 30.9998 46.9841 30.9998H47.4685C47.7363 30.9998 47.9529 30.7828 47.9529 30.5154Z" fill="white"/>
<path d="M13.5304 42.7775C13.6152 42.9482 13.7867 43.0471 13.9651 43.0471C14.037 43.0471 14.1104 43.031 14.1795 42.997C14.4192 42.8784 14.5177 42.588 14.399 42.348L14.1843 41.9137C14.065 41.6739 13.7756 41.5754 13.5353 41.6941C13.2955 41.8128 13.197 42.1032 13.3157 42.3431L13.5304 42.7775Z" fill="white"/>
<path d="M12.4574 40.6059C12.5416 40.7768 12.7134 40.8759 12.8922 40.8759C12.964 40.8759 13.0369 40.8598 13.1059 40.8261C13.3457 40.7076 13.4446 40.4172 13.3259 40.1774L13.1116 39.7431C12.9933 39.5035 12.7039 39.4054 12.4631 39.5229C12.2233 39.6414 12.1244 39.9318 12.2431 40.1716L12.4574 40.6059Z" fill="white"/>
<path d="M14.6025 44.9484C14.6866 45.1194 14.8584 45.2185 15.0372 45.2185C15.109 45.2185 15.1819 45.2023 15.2509 45.1686C15.4907 45.0501 15.5896 44.7597 15.4709 44.5199L15.2566 44.0856C15.1387 43.846 14.8489 43.748 14.6081 43.8654C14.3683 43.9839 14.2694 44.2743 14.3881 44.5141L14.6025 44.9484Z" fill="white"/>
<path d="M12.0388 37.5709C11.9195 37.3312 11.6301 37.2327 11.3898 37.3513C11.15 37.47 11.0515 37.7604 11.1702 38.0004L11.3849 38.4347C11.4697 38.6054 11.6412 38.7043 11.8196 38.7043C11.8915 38.7043 11.965 38.6882 12.034 38.6543C12.2737 38.5356 12.3722 38.2452 12.2536 38.0052L12.0388 37.5709Z" fill="white"/>
<path d="M47.9172 46.3233C47.9862 46.3574 48.0591 46.3733 48.1309 46.3733C48.3097 46.3733 48.4815 46.2742 48.5657 46.1033L48.6928 45.8455C48.8115 45.6058 48.7126 45.3153 48.4728 45.1971C48.2339 45.0784 47.9426 45.1773 47.8243 45.4171L47.6972 45.6748C47.5785 45.9146 47.6774 46.205 47.9172 46.3233Z" fill="white"/>
<path d="M51.6924 38.6828C51.4517 38.5641 51.1622 38.663 51.0434 38.9024L50.8287 39.3367C50.71 39.5765 50.8083 39.8669 51.0482 39.9857C51.1173 40.0199 51.1905 40.0358 51.2626 40.0358C51.441 40.0358 51.6125 39.9369 51.6973 39.7662L51.912 39.3318C52.0305 39.0921 51.9322 38.8014 51.6924 38.6828Z" fill="white"/>
<path d="M49.9757 42.1574C50.0447 42.1913 50.1176 42.2073 50.1894 42.2073C50.3682 42.2073 50.54 42.1082 50.6241 41.9372L50.8385 41.5029C50.9571 41.2631 50.8582 40.9727 50.6185 40.8542C50.3787 40.7368 50.0883 40.8346 49.97 41.0744L49.7557 41.5087C49.6368 41.7485 49.7357 42.0389 49.9757 42.1574Z" fill="white"/>
<path d="M52.7622 36.5112C52.5218 36.394 52.2319 36.4917 52.1137 36.7314L51.8993 37.1657C51.7807 37.4055 51.8796 37.6959 52.1193 37.8144C52.1884 37.8483 52.2612 37.8643 52.3331 37.8643C52.5119 37.8643 52.6836 37.7652 52.7678 37.5942L52.9821 37.1599C53.1008 36.9201 53.0019 36.6297 52.7622 36.5112Z" fill="white"/>
<path d="M49.5462 43.0254C49.3054 42.9067 49.016 43.0052 48.8972 43.245L48.6824 43.6793C48.5638 43.9191 48.662 44.2095 48.902 44.3283C48.971 44.3625 49.0443 44.3784 49.1163 44.3784C49.2948 44.3784 49.4663 44.2795 49.5511 44.1088L49.7658 43.6744C49.8845 43.4345 49.786 43.144 49.5462 43.0254Z" fill="white"/>
<path d="M50.4086 21.5816C50.4928 21.7526 50.6645 21.8517 50.8433 21.8517C50.9152 21.8517 50.9881 21.8355 51.0571 21.8018C51.2968 21.6834 51.3957 21.3929 51.2771 21.1532L51.0627 20.7188C50.9445 20.4789 50.6544 20.3804 50.4143 20.4987C50.1745 20.6171 50.0756 20.9076 50.1943 21.1473L50.4086 21.5816Z" fill="white"/>
<path d="M49.771 19.6804C49.8429 19.6804 49.9164 19.6642 49.9854 19.6303C50.2251 19.5116 50.3236 19.2212 50.205 18.9813L49.9902 18.547C49.8709 18.3072 49.5815 18.2085 49.3412 18.3274C49.1014 18.446 49.0029 18.7365 49.1216 18.9764L49.3363 19.4107C49.4211 19.5815 49.5926 19.6804 49.771 19.6804Z" fill="white"/>
<path d="M48.6978 17.5093C48.7697 17.5093 48.8425 17.4931 48.9116 17.4594C49.1513 17.341 49.2502 17.0505 49.1316 16.8108L48.9172 16.3764C48.7989 16.1365 48.5095 16.038 48.2688 16.1562C48.029 16.2747 47.9301 16.5651 48.0488 16.8049L48.2631 17.2392C48.3475 17.4102 48.519 17.5093 48.6978 17.5093Z" fill="white"/>
<path d="M51.4811 23.7537C51.5658 23.9246 51.737 24.0235 51.9158 24.0235C51.9877 24.0235 52.0611 24.0074 52.1301 23.9735C52.3699 23.855 52.4684 23.5644 52.3497 23.3248L52.135 22.8903C52.0163 22.6507 51.7267 22.552 51.486 22.6705C51.2462 22.789 51.1477 23.0796 51.2664 23.3192L51.4811 23.7537Z" fill="white"/>
<path d="M52.5294 25.8778C52.6136 26.0487 52.7854 26.1478 52.9642 26.1478C53.036 26.1478 53.1095 26.1317 53.1779 26.0978C53.4177 25.9795 53.5166 25.6891 53.3979 25.4493L53.2068 25.0622C53.0885 24.8224 52.7977 24.7235 52.5583 24.8422C52.3185 24.9605 52.2196 25.2509 52.3383 25.4907L52.5294 25.8778Z" fill="white"/>
<path d="M39.7709 41.0714C39.6248 40.8481 39.3248 40.7866 39.1002 40.9329C38.877 41.08 38.8151 41.3803 38.9622 41.6039L39.2286 42.0086C39.3212 42.1501 39.476 42.2266 39.6334 42.2266C39.7247 42.2266 39.8169 42.2007 39.8992 42.1469C40.1225 41.9997 40.1844 41.6994 40.0373 41.4758L39.7709 41.0714Z" fill="white"/>
<path d="M41.1014 43.0952C40.9547 42.8722 40.655 42.8102 40.4308 42.9567C40.2076 43.1039 40.1456 43.4042 40.2928 43.6278L40.5592 44.0324C40.6518 44.1739 40.8066 44.2504 40.964 44.2504C41.0552 44.2504 41.1475 44.2246 41.2298 44.1707C41.453 44.0236 41.515 43.7233 41.3679 43.4996L41.1014 43.0952Z" fill="white"/>
<path d="M43.0927 47.0038C42.8695 47.1509 42.8075 47.4512 42.9546 47.6748L43.0775 47.8617C43.1702 48.0032 43.325 48.0797 43.4824 48.0797C43.5736 48.0797 43.6664 48.0539 43.7482 48C43.9714 47.8528 44.0334 47.5525 43.8862 47.3289L43.7633 47.142C43.6172 46.9188 43.3163 46.8569 43.0927 47.0038Z" fill="white"/>
<path d="M42.5599 46.1942C42.7837 46.0472 42.8457 45.7469 42.699 45.5235L42.4332 45.1189C42.286 44.8955 41.9857 44.8339 41.7625 44.9798C41.5387 45.1268 41.4768 45.4271 41.6235 45.6505L41.8893 46.0551C41.9825 46.1968 42.1371 46.2737 42.2947 46.2737C42.3858 46.2737 42.478 46.2479 42.5599 46.1942Z" fill="white"/>
<path d="M23.8245 42.9566C23.6003 42.8099 23.3004 42.8719 23.1539 43.0951L22.8875 43.4997C22.7404 43.7232 22.8023 44.0237 23.0255 44.1708C23.1079 44.2247 23.2001 44.2505 23.2913 44.2505C23.4488 44.2505 23.6036 44.1738 23.6962 44.0325L23.9626 43.6279C24.1097 43.4041 24.0477 43.1037 23.8245 42.9566Z" fill="white"/>
<path d="M21.8236 45.1185L21.5572 45.5231C21.41 45.7465 21.472 46.0471 21.6952 46.1942C21.7776 46.2481 21.8698 46.2739 21.961 46.2739C22.1184 46.2739 22.2732 46.1972 22.3659 46.0559L22.6323 45.6513C22.7794 45.4279 22.7174 45.1273 22.4942 44.9802C22.2706 44.8333 21.9702 44.8953 21.8236 45.1185Z" fill="white"/>
<path d="M25.1556 40.933C24.9314 40.7866 24.6314 40.848 24.4849 41.0714L24.2185 41.4761C24.0714 41.6995 24.1334 42 24.3566 42.1471C24.4389 42.201 24.5312 42.2268 24.6224 42.2268C24.7798 42.2268 24.9346 42.1501 25.0272 42.0089L25.2936 41.6042C25.4408 41.3806 25.3788 41.08 25.1556 40.933Z" fill="white"/>
<path d="M21.5004 17.342L21.8013 17.7218C21.8968 17.8425 22.0389 17.9053 22.1816 17.9053C22.2865 17.9053 22.3931 17.8709 22.4819 17.8005C22.6914 17.6344 22.7269 17.3299 22.5608 17.1202L22.2599 16.7403C22.0938 16.5308 21.7888 16.4949 21.5791 16.6616C21.3698 16.8275 21.3343 17.1321 21.5004 17.342Z" fill="white"/>
<path d="M23.3042 19.6205C23.3997 19.7416 23.5412 19.8045 23.6845 19.8045C23.7894 19.8045 23.8954 19.7704 23.9844 19.7C24.1945 19.5343 24.2298 19.2295 24.0639 19.0198L23.7636 18.64C23.5985 18.4307 23.2939 18.3942 23.0834 18.5605C22.8734 18.7262 22.838 19.0309 23.0039 19.2406L23.3042 19.6205Z" fill="white"/>
<path d="M20.9788 15.902C21.1889 15.7363 21.2242 15.4315 21.0583 15.2218L20.758 14.842C20.5925 14.6323 20.2883 14.596 20.0778 14.7625C19.8677 14.9282 19.8324 15.2329 19.9983 15.4426L20.2986 15.8225C20.3941 15.9436 20.5356 16.0065 20.6789 16.0065C20.784 16.0065 20.89 15.9724 20.9788 15.902Z" fill="white"/>
<path d="M24.5064 21.14L24.8074 21.5198C24.9028 21.6405 25.0449 21.7033 25.1876 21.7033C25.2925 21.7033 25.3991 21.669 25.4879 21.5985C25.6974 21.4324 25.7329 21.1279 25.5668 20.9182L25.2659 20.5384C25.1004 20.3291 24.7948 20.2929 24.5851 20.4597C24.3759 20.6256 24.3405 20.9301 24.5064 21.14Z" fill="white"/>
<path d="M41.1886 17.1911L41.1753 17.2117C41.0306 17.4365 41.102 17.7259 41.3271 17.8708C41.4052 17.9213 41.4936 17.9449 41.5816 17.9449C41.7456 17.9449 41.9089 17.862 42.003 17.7152C42.1477 17.4904 42.0829 17.1907 41.8577 17.046C41.6332 16.9007 41.3339 16.9657 41.1886 17.1911Z" fill="white"/>
<path d="M39.9854 19.9015C40.0677 19.9554 40.1599 19.9812 40.2512 19.9812C40.4086 19.9812 40.5634 19.9045 40.656 19.7633L40.9224 19.3586C41.0696 19.1352 41.0076 18.8347 40.7844 18.6876C40.5606 18.5406 40.2602 18.6028 40.1137 18.826L39.8473 19.2307C39.7 19.4539 39.762 19.7544 39.9854 19.9015Z" fill="white"/>
<path d="M38.7826 20.8495L38.5161 21.2542C38.369 21.4776 38.431 21.7781 38.6542 21.9252C38.7365 21.9791 38.8288 22.005 38.92 22.005C39.0774 22.005 39.2322 21.9283 39.3248 21.787L39.5913 21.3823C39.7384 21.1589 39.6764 20.8584 39.4532 20.7113C39.229 20.565 38.929 20.6263 38.7826 20.8495Z" fill="white"/>
<path d="M14.1344 21.6545C14.2034 21.6885 14.2762 21.7044 14.3481 21.7044C14.5269 21.7044 14.6987 21.6053 14.7828 21.4344L14.9972 20.9998C15.1158 20.7599 15.0169 20.4696 14.7772 20.3512C14.5368 20.2333 14.247 20.332 14.1287 20.5713L13.9144 21.0059C13.7955 21.2458 13.8944 21.5359 14.1344 21.6545Z" fill="white"/>
<path d="M11.9893 25.9972C12.0583 26.0311 12.1311 26.047 12.203 26.047C12.3818 26.047 12.5536 25.9479 12.6377 25.777L12.852 25.3427C12.9707 25.1029 12.8718 24.8124 12.6321 24.694C12.3917 24.5769 12.1019 24.6746 11.9836 24.9142L11.7693 25.3485C11.6506 25.5882 11.7493 25.8787 11.9893 25.9972Z" fill="white"/>
<path d="M15.2064 19.4824C15.2754 19.5165 15.3487 19.5325 15.4208 19.5325C15.5992 19.5325 15.7707 19.4336 15.8555 19.2628L16.0702 18.8285C16.1889 18.5887 16.0906 18.2983 15.8506 18.1795C15.6103 18.0608 15.3204 18.1593 15.2016 18.399L14.9869 18.8334C14.8682 19.0733 14.9665 19.3638 15.2064 19.4824Z" fill="white"/>
<path d="M13.7056 22.5226C13.4648 22.4045 13.1754 22.5024 13.0566 22.7424L12.8418 23.1769C12.7232 23.4164 12.8215 23.7071 13.0614 23.8256C13.1305 23.8597 13.2037 23.8756 13.2758 23.8756C13.4546 23.8756 13.6257 23.7767 13.7105 23.6058L13.9252 23.1712C14.0439 22.9319 13.9454 22.6413 13.7056 22.5226Z" fill="white"/>
<path d="M16.2797 17.3115C16.3488 17.3454 16.4216 17.3614 16.4935 17.3614C16.6723 17.3614 16.844 17.2623 16.9282 17.0913L17.1425 16.657C17.2612 16.4172 17.1623 16.1268 16.9226 16.0083C16.6818 15.8909 16.3918 15.9892 16.2741 16.2285L16.0597 16.6628C15.9411 16.9026 16.04 17.193 16.2797 17.3115Z" fill="white"/>
</svg>
